<?xml version="1.0"?>
<svg xmlns="http://www.w3.org/2000/svg" xmlns:xlink="http://www.w3.org/1999/xlink" width="512px" height="512px" viewBox="0 0 58 58" version="1.1" class=""><g><title>042 - Car Insurance Documents</title><desc>Created with Sketch.</desc><defs/><g id="Page-1" stroke="none" stroke-width="1" fill="none" fill-rule="evenodd"><g id="042---Car-Insurance-Documents" fill-rule="nonzero"><path d="M44,33.82 L44,13 L31,0 L2,0 C0.896798134,0.00329480111 0.00329480111,0.896798134 0,2 L0,56 C0.00329480111,57.1032019 0.896798134,57.9967052 2,58 L42,58 C43.1032019,57.9967052 43.9967052,57.1032019 44,56 L44,33.82 Z" id="Shape" fill="#B0D3F0" data-original="#B0D3F0" class=""/><path d="M44,13 L31,0 L31,12 C31,12.5522847 31.4477153,13 32,13 L44,13 Z" id="Shape" fill="#90BAE1" data-original="#90BAE1" class=""/><path d="M27.512,16 L16.488,16 C15.6047388,15.9998063 14.8259376,16.5790295 14.572,17.425 L12,26 L32,26 L29.428,17.425 C29.1740624,16.5790295 28.3952612,15.9998063 27.512,16 Z" id="Shape" fill="#2FA8CC" data-original="#2FA8CC" class=""/><path d="M32,27 L12,27 C11.6839458,27.0000219 11.386484,26.8506313 11.1977668,26.5971041 C11.0090496,26.3435768 10.9512924,26.015758 11.042,25.713 L13.614,17.139 C13.9892059,15.8658468 15.1607239,14.9939341 16.488,15 L27.512,15 C28.8392761,14.9939341 30.0107941,15.8658468 30.386,17.139 L32.958,25.713 C33.0487076,26.015758 32.9909504,26.3435768 32.8022332,26.5971041 C32.613516,26.8506313 32.3160542,27.0000219 32,27 Z M13.344,25 L30.656,25 L28.47,17.713 C28.3449314,17.2886156 27.9544254,16.997978 27.512,17 L16.488,17 C16.0455746,16.997978 15.6550686,17.2886156 15.53,17.713 L13.344,25 Z" id="Shape" fill="#2980BA" data-original="#2980BA" class=""/><path d="M22,19 C21.4477153,19 21,18.5522847 21,18 L21,16 C21,15.4477153 21.4477153,15 22,15 C22.5522847,15 23,15.4477153 23,16 L23,18 C23,18.5522847 22.5522847,19 22,19 Z" id="Shape" fill="#2980BA" data-original="#2980BA" class=""/><path d="M16,6 L5,6 C4.44771525,6 4,5.55228475 4,5 C4,4.44771525 4.44771525,4 5,4 L16,4 C16.5522847,4 17,4.44771525 17,5 C17,5.55228475 16.5522847,6 16,6 Z" id="Shape" fill="#285680" data-original="#285680"/><path d="M26,6 L21,6 C20.4477153,6 20,5.55228475 20,5 C20,4.44771525 20.4477153,4 21,4 L26,4 C26.5522847,4 27,4.44771525 27,5 C27,5.55228475 26.5522847,6 26,6 Z" id="Shape" fill="#285680" data-original="#285680"/><path d="M26,12 L5,12 C4.44771525,12 4,11.5522847 4,11 C4,10.4477153 4.44771525,10 5,10 L26,10 C26.5522847,10 27,10.4477153 27,11 C27,11.5522847 26.5522847,12 26,12 Z" id="Shape" fill="#285680" data-original="#285680"/><path d="M10,16 L5,16 C4.44771525,16 4,15.5522847 4,15 C4,14.4477153 4.44771525,14 5,14 L10,14 C10.5522847,14 11,14.4477153 11,15 C11,15.5522847 10.5522847,16 10,16 Z" id="Shape" fill="#285680" data-original="#285680"/><path d="M24,45 L5,45 C4.44771525,45 4,44.5522847 4,44 C4,43.4477153 4.44771525,43 5,43 L24,43 C24.5522847,43 25,43.4477153 25,44 C25,44.5522847 24.5522847,45 24,45 Z" id="Shape" fill="#285680" data-original="#285680"/><path d="M34,45 L28,45 C27.4477153,45 27,44.5522847 27,44 C27,43.4477153 27.4477153,43 28,43 L34,43 C34.5522847,43 35,43.4477153 35,44 C35,44.5522847 34.5522847,45 34,45 Z" id="Shape" fill="#285680" data-original="#285680"/><path d="M34,49 L20,49 C19.4477153,49 19,48.5522847 19,48 C19,47.4477153 19.4477153,47 20,47 L34,47 C34.5522847,47 35,47.4477153 35,48 C35,48.5522847 34.5522847,49 34,49 Z" id="Shape" fill="#285680" data-original="#285680"/><path d="M16,49 L5,49 C4.44771525,49 4,48.5522847 4,48 C4,47.4477153 4.44771525,47 5,47 L16,47 C16.5522847,47 17,47.4477153 17,48 C17,48.5522847 16.5522847,49 16,49 Z" id="Shape" fill="#285680" data-original="#285680"/><path d="M29,53 L5,53 C4.44771525,53 4,52.5522847 4,52 C4,51.4477153 4.44771525,51 5,51 L29,51 C29.5522847,51 30,51.4477153 30,52 C30,52.5522847 29.5522847,53 29,53 Z" id="Shape" fill="#285680" data-original="#285680"/><path d="M35,53 L33,53 C32.4477153,53 32,52.5522847 32,52 C32,51.4477153 32.4477153,51 33,51 L35,51 C35.5522847,51 36,51.4477153 36,52 C36,52.5522847 35.5522847,53 35,53 Z" id="Shape" fill="#285680" data-original="#285680"/><path d="M40.188,52.439 C38.8237029,51.4745084 38.0088756,49.9107698 38,48.24 L38,36.408 L48,32.088 L58,36.408 L58,48.24 C57.9914466,49.9111234 57.1765832,51.4753035 55.812,52.44 L48,58 L40.188,52.439 Z" id="Shape" fill="#B49ACA" data-original="#B49ACA" class="" data-old_color="#B49ACA" style="fill:#C4AFD5"/><path d="M46,50.73 C45.7836298,50.73 45.5730962,50.6598221 45.4,50.53 L41.4,47.53 C40.9581722,47.1986292 40.8686292,46.5718278 41.2,46.13 C41.5313708,45.6881722 42.1581722,45.5986292 42.6,45.93 L45.825,48.348 L53.219,39.105 C53.5650579,38.6777006 54.1911792,38.6099554 54.6206245,38.9533466 C55.0500699,39.2967379 55.1217114,39.9224254 54.781,40.354 L46.781,50.354 C46.5913371,50.5915116 46.3039469,50.729871 46,50.73 Z" id="Shape" fill="#894B9D" data-original="#894B9D" class="" data-old_color="#894B9D" style="fill:#7A6880"/><path d="M36,30 L36,34 C35.9967052,35.1032019 35.1032019,35.9967052 34,36 L10,36 C8.89679813,35.9967052 8.0032948,35.1032019 8,34 L8,30 C8,27.790861 9.790861,26 12,26 L32,26 C34.209139,26 36,27.790861 36,30 Z" id="Shape" fill="#3B97D3" data-original="#3B97D3" class=""/><path d="M16,30 L16,31 C16,31.5522847 15.5522847,32 15,32 L8,32 L8,30 L14,30 C14,29.4477153 14.4477153,29 15,29 C15.5522847,29 16,29.4477153 16,30 Z" id="Shape" fill="#F3D55B" data-original="#F3D55B" class="" data-old_color="#F3D55B" style="fill:#F3D55B"/><path d="M36,30 L36,32 L29,32 C28.4477153,32 28,31.5522847 28,31 L28,30 C28,29.4477153 28.4477153,29 29,29 C29.5522847,29 30,29.4477153 30,30 L36,30 Z" id="Shape" fill="#F3D55B" data-original="#F3D55B" class="" data-old_color="#F3D55B" style="fill:#F3D55B"/><path d="M19,32 L25,32 C25.5522847,32 26,32.4477153 26,33 L26,36 L18,36 L18,33 C18,32.4477153 18.4477153,32 19,32 Z" id="Shape" fill="#ECF0F1" data-original="#ECF0F1" class="active-path" data-old_color="#ECF0F1" style="fill:#ECF0F1"/><path d="M20,33 L24,33 C24.5522847,33 25,33.4477153 25,34 L25,36 L19,36 L19,34 C19,33.4477153 19.4477153,33 20,33 Z" id="Shape" fill="#FFFFFF" data-original="#FFFFFF" class=""/><path d="M11,36 L17,36 L17,38 C17,39.1045695 16.1045695,40 15,40 L13,40 C11.8954305,40 11,39.1045695 11,38 L11,36 Z" id="Shape" fill="#35495E" data-original="#35495E" class="" style="fill:#35495E" data-old_color="#35495E"/><path d="M27,36 L33,36 L33,38 C33,39.1045695 32.1045695,40 31,40 L29,40 C27.8954305,40 27,39.1045695 27,38 L27,36 Z" id="Shape" fill="#35495E" data-original="#35495E" class="" style="fill:#35495E" data-old_color="#35495E"/></g></g></g> </svg>
