<?xml version="1.0" encoding="iso-8859-1"?>
<!-- Generator: Adobe Illustrator 19.0.0, SVG Export Plug-In . SVG Version: 6.00 Build 0)  -->
<svg version="1.1" id="Capa_1" xmlns="http://www.w3.org/2000/svg" xmlns:xlink="http://www.w3.org/1999/xlink" x="0px" y="0px"
	 viewBox="0 0 512.042 512.042" style="enable-background:new 0 0 512.042 512.042;" xml:space="preserve">
<path style="fill:#2196F3;" d="M472.426,64.468l-213.333-64c-1.993-0.624-4.13-0.624-6.123,0l-213.333,64
	c-4.518,1.349-7.615,5.504-7.616,10.219v234.667c0,94.315,143.829,178.219,220.843,202.197c2.083,0.655,4.317,0.655,6.4,0
	c76.928-23.979,220.757-107.883,220.757-202.197V74.687C480.023,69.978,476.936,65.825,472.426,64.468z"/>
<path style="fill:#1976D2;" d="M408.426,112.084l-149.333-44.8c-1.993-0.624-4.13-0.624-6.123,0l-149.333,44.8
	c-4.51,1.356-7.596,5.509-7.595,10.219v187.051c0,41.835,82.411,105.323,156.117,134.144c2.497,0.976,5.269,0.976,7.765,0
	c73.685-28.821,156.096-92.309,156.096-134.144V122.282C416.014,117.58,412.929,113.438,408.426,112.084z"/>
<g>
	<path style="fill:#CFD8DC;" d="M192.021,320.02c-5.891,0-10.667-4.776-10.667-10.667V288.02c0-5.891,4.776-10.667,10.667-10.667
		c5.891,0,10.667,4.776,10.667,10.667v21.333C202.688,315.245,197.912,320.02,192.021,320.02z"/>
	<path style="fill:#CFD8DC;" d="M320.021,320.02c-5.891,0-10.667-4.776-10.667-10.667V288.02c0-5.891,4.776-10.667,10.667-10.667
		c5.891,0,10.667,4.776,10.667,10.667v21.333C330.688,315.245,325.912,320.02,320.021,320.02z"/>
	<path style="fill:#CFD8DC;" d="M320.021,224.02h-128l16.427-49.493c3.006-8.636,11.122-14.446,20.267-14.507h54.613
		c9.144,0.061,17.261,5.87,20.267,14.507L320.021,224.02z"/>
</g>
<g>
	<path style="fill:#FAFAFA;" d="M320.021,234.687h-128c-5.891,0.003-10.669-4.769-10.673-10.661
		c-0.001-1.14,0.181-2.273,0.539-3.355l16.427-49.493c4.457-13.002,16.655-21.759,30.4-21.824h54.613
		c13.662,0.063,25.8,8.73,30.293,21.632l16.491,49.685c1.85,5.593-1.185,11.627-6.778,13.477
		C322.265,234.501,321.147,234.683,320.021,234.687z M206.805,213.354h98.432l-11.776-35.477c-1.563-4.264-5.593-7.122-10.133-7.189
		h-54.613c-4.607,0.089-8.674,3.032-10.197,7.381L206.805,213.354z"/>
	<path style="fill:#FAFAFA;" d="M346.133,225.151L324.8,214.484c-1.485-0.738-3.12-1.125-4.779-1.131h-128
		c-1.659,0.006-3.294,0.392-4.779,1.131l-21.333,10.667c-3.609,1.808-5.888,5.499-5.888,9.536v32c0,17.673,14.327,32,32,32h128
		c17.673,0,32-14.327,32-32v-32C352.021,230.65,349.742,226.959,346.133,225.151z"/>
</g>
<g>
	<path style="fill:#CFD8DC;" d="M213.354,266.687h-21.333c-5.891,0-10.667-4.776-10.667-10.667c0-5.891,4.776-10.667,10.667-10.667
		h21.333c5.891,0,10.667,4.776,10.667,10.667C224.021,261.911,219.246,266.687,213.354,266.687z"/>
	<path style="fill:#CFD8DC;" d="M320.021,266.687h-21.333c-5.891,0-10.667-4.776-10.667-10.667c0-5.891,4.776-10.667,10.667-10.667
		h21.333c5.891,0,10.667,4.776,10.667,10.667C330.688,261.911,325.912,266.687,320.021,266.687z"/>
</g>
<g>
</g>
<g>
</g>
<g>
</g>
<g>
</g>
<g>
</g>
<g>
</g>
<g>
</g>
<g>
</g>
<g>
</g>
<g>
</g>
<g>
</g>
<g>
</g>
<g>
</g>
<g>
</g>
<g>
</g>
</svg>
