<?xml version="1.0" encoding="UTF-8"?>
<svg xmlns="http://www.w3.org/2000/svg" xmlns:xlink="http://www.w3.org/1999/xlink" width="612pt" height="792pt" viewBox="0 0 612 792" version="1.1">
<defs>
<clipPath id="clip1">
  <path d="M 355 256 L 430 256 L 430 371 L 355 371 Z M 355 256 "/>
</clipPath>
<clipPath id="clip2">
  <path d="M 348.585938 144.714844 C 484.179688 144.714844 594.101563 245.175781 594.101563 369.097656 C 594.101563 493.019531 484.179688 593.476563 348.585938 593.476563 C 212.988281 593.476563 103.066406 493.019531 103.066406 369.097656 C 103.066406 245.175781 212.988281 144.714844 348.585938 144.714844 "/>
</clipPath>
<clipPath id="clip3">
  <path d="M 119 254 L 550 254 L 550 534 L 119 534 Z M 119 254 "/>
</clipPath>
<clipPath id="clip4">
  <path d="M 348.585938 144.714844 C 484.179688 144.714844 594.101563 245.175781 594.101563 369.097656 C 594.101563 493.019531 484.179688 593.476563 348.585938 593.476563 C 212.988281 593.476563 103.066406 493.019531 103.066406 369.097656 C 103.066406 245.175781 212.988281 144.714844 348.585938 144.714844 "/>
</clipPath>
</defs>
<g id="surface1">
<path style=" stroke:none;fill-rule:nonzero;fill:rgb(92.941284%,10.980225%,14.117432%);fill-opacity:1;" d="M 30.988281 637.726563 C 30.988281 637.210938 31.011719 636.742188 31.0625 636.320313 C 31.109375 635.894531 31.1875 635.5 31.300781 635.121094 C 31.417969 634.75 31.558594 634.414063 31.730469 634.117188 C 31.898438 633.816406 32.121094 633.503906 32.394531 633.175781 C 32.664063 632.847656 33.007813 632.503906 33.425781 632.140625 C 33.847656 631.78125 34.449219 631.316406 35.230469 630.765625 L 36.183594 632.066406 C 35.769531 632.464844 35.464844 632.796875 35.265625 633.070313 C 35.066406 633.347656 34.898438 633.644531 34.761719 633.957031 C 34.625 634.269531 34.488281 634.65625 34.359375 635.113281 C 34.234375 635.566406 34.132813 636.015625 34.074219 636.46875 C 34.007813 636.921875 33.96875 637.339844 33.960938 637.726563 Z M 25.90625 637.726563 C 25.90625 637.210938 25.933594 636.742188 25.980469 636.320313 C 26.027344 635.894531 26.105469 635.5 26.21875 635.121094 C 26.332031 634.75 26.480469 634.414063 26.648438 634.117188 C 26.816406 633.816406 27.039063 633.503906 27.308594 633.175781 C 27.582031 632.847656 27.925781 632.503906 28.34375 632.140625 C 28.765625 631.78125 29.363281 631.316406 30.144531 630.765625 L 31.101563 632.066406 C 30.6875 632.464844 30.382813 632.796875 30.183594 633.070313 C 29.984375 633.347656 29.816406 633.644531 29.679688 633.957031 C 29.542969 634.269531 29.40625 634.65625 29.277344 635.113281 C 29.152344 635.566406 29.050781 636.015625 28.988281 636.46875 C 28.925781 636.921875 28.886719 637.339844 28.878906 637.726563 Z M 47.46875 638.015625 C 47.992188 637.03125 48.351563 636.324219 48.542969 635.898438 C 48.738281 635.46875 48.871094 635.117188 48.929688 634.832031 C 48.996094 634.550781 49.03125 634.285156 49.03125 634.039063 C 49.03125 633.378906 48.636719 632.996094 47.855469 632.890625 L 48.0625 631.980469 L 53.945313 631.980469 L 53.738281 632.890625 C 53.460938 632.949219 53.21875 633.042969 53.007813 633.175781 C 52.796875 633.3125 52.59375 633.484375 52.40625 633.703125 C 52.214844 633.917969 52.03125 634.175781 51.851563 634.476563 C 51.675781 634.773438 51.472656 635.121094 51.253906 635.515625 L 42.675781 650.929688 L 39.210938 650.929688 L 38.617188 636.167969 C 38.597656 635.601563 38.566406 635.160156 38.519531 634.832031 C 38.476563 634.507813 38.414063 634.226563 38.339844 634 C 38.269531 633.769531 38.179688 633.574219 38.070313 633.417969 C 37.964844 633.257813 37.828125 633.140625 37.664063 633.058594 C 37.5 632.976563 37.316406 632.921875 37.113281 632.890625 L 37.316406 631.980469 L 44.457031 631.980469 L 44.25 632.890625 C 43.84375 632.921875 43.527344 633.023438 43.300781 633.199219 C 43.082031 633.371094 42.914063 633.609375 42.820313 633.902344 C 42.722656 634.199219 42.675781 634.636719 42.675781 635.226563 L 42.675781 635.820313 C 42.675781 636.023438 42.679688 636.238281 42.691406 636.46875 L 42.8125 643.253906 C 42.832031 644.519531 42.839844 645.566406 42.839844 646.386719 L 43.011719 646.386719 Z M 60.128906 631.625 L 59.414063 635.007813 L 55.835938 635.007813 L 56.59375 631.625 Z M 56.941406 647.148438 C 56.839844 647.605469 56.773438 647.949219 56.746094 648.167969 C 56.722656 648.386719 56.707031 648.574219 56.707031 648.722656 C 56.707031 649.117188 56.8125 649.398438 57.019531 649.574219 C 57.222656 649.75 57.582031 649.867188 58.089844 649.921875 L 57.933594 650.832031 L 52.191406 650.832031 L 54.347656 641.191406 C 54.464844 640.640625 54.550781 640.210938 54.59375 639.902344 C 54.640625 639.59375 54.664063 639.335938 54.664063 639.125 C 54.664063 638.761719 54.578125 638.507813 54.40625 638.355469 C 54.238281 638.203125 53.878906 638.101563 53.339844 638.042969 L 53.546875 637.132813 L 57.589844 636.980469 L 59.164063 636.980469 Z M 73.886719 637.132813 L 74.367188 638.042969 C 73.207031 641.117188 70.53125 645.449219 66.328125 651.039063 L 63.652344 651.039063 L 62.371094 640.515625 C 62.277344 639.777344 62.171875 639.261719 62.058594 638.953125 C 61.941406 638.652344 61.792969 638.429688 61.621094 638.292969 C 61.445313 638.15625 61.1875 638.070313 60.832031 638.042969 L 61.039063 637.132813 L 65.90625 637.132813 L 66.855469 647.449219 C 68.25 645.46875 69.269531 643.808594 69.929688 642.46875 C 70.585938 641.132813 70.914063 640.019531 70.914063 639.136719 C 70.914063 638.785156 70.835938 638.519531 70.664063 638.339844 C 70.5 638.160156 70.214844 638.0625 69.796875 638.042969 L 69.992188 637.132813 Z M 86.300781 647.960938 C 85.371094 649.007813 84.371094 649.785156 83.300781 650.296875 C 82.222656 650.800781 81.066406 651.054688 79.8125 651.054688 C 78.734375 651.054688 77.816406 650.867188 77.0625 650.488281 C 76.308594 650.113281 75.738281 649.550781 75.355469 648.808594 C 74.972656 648.070313 74.785156 647.183594 74.785156 646.152344 C 74.785156 645.671875 74.847656 645.058594 74.980469 644.3125 C 75.152344 643.300781 75.417969 642.398438 75.78125 641.609375 C 76.226563 640.632813 76.816406 639.792969 77.546875 639.09375 C 78.273438 638.394531 79.128906 637.855469 80.109375 637.476563 C 81.089844 637.101563 82.164063 636.914063 83.332031 636.914063 C 84.714844 636.914063 85.765625 637.164063 86.480469 637.667969 C 87.199219 638.167969 87.558594 638.933594 87.558594 639.960938 C 87.558594 640.664063 87.417969 641.28125 87.136719 641.816406 C 86.859375 642.347656 86.390625 642.832031 85.734375 643.265625 C 85.082031 643.695313 84.15625 644.050781 82.96875 644.3125 C 81.777344 644.582031 80.335938 644.734375 78.652344 644.769531 C 78.535156 645.3125 78.472656 645.875 78.472656 646.453125 C 78.472656 646.796875 78.503906 647.117188 78.566406 647.429688 C 78.632813 647.734375 78.746094 648.007813 78.914063 648.25 C 79.082031 648.488281 79.300781 648.679688 79.574219 648.824219 C 79.851563 648.964844 80.207031 649.035156 80.640625 649.035156 C 81.453125 649.035156 82.183594 648.871094 82.835938 648.546875 C 83.488281 648.222656 84.257813 647.636719 85.140625 646.800781 Z M 78.980469 643.320313 C 80.679688 643.273438 81.972656 642.953125 82.871094 642.347656 C 83.765625 641.746094 84.21875 640.890625 84.21875 639.78125 C 84.21875 639.316406 84.109375 638.957031 83.894531 638.714844 C 83.675781 638.46875 83.375 638.351563 82.988281 638.351563 C 82.128906 638.351563 81.363281 638.769531 80.671875 639.617188 C 79.988281 640.46875 79.425781 641.699219 78.980469 643.320313 Z M 106.628906 647.960938 C 105.699219 649.007813 104.695313 649.785156 103.625 650.296875 C 102.550781 650.800781 101.390625 651.054688 100.136719 651.054688 C 99.0625 651.054688 98.144531 650.867188 97.386719 650.488281 C 96.632813 650.113281 96.0625 649.550781 95.683594 648.808594 C 95.300781 648.070313 95.113281 647.183594 95.113281 646.152344 C 95.113281 645.671875 95.171875 645.058594 95.304688 644.3125 C 95.480469 643.300781 95.742188 642.398438 96.105469 641.609375 C 96.554688 640.632813 97.144531 639.792969 97.875 639.09375 C 98.601563 638.394531 99.453125 637.855469 100.433594 637.476563 C 101.414063 637.101563 102.488281 636.914063 103.65625 636.914063 C 105.039063 636.914063 106.089844 637.164063 106.808594 637.667969 C 107.523438 638.167969 107.886719 638.933594 107.886719 639.960938 C 107.886719 640.664063 107.746094 641.28125 107.460938 641.816406 C 107.183594 642.347656 106.71875 642.832031 106.0625 643.265625 C 105.40625 643.695313 104.484375 644.050781 103.296875 644.3125 C 102.101563 644.582031 100.660156 644.734375 98.976563 644.769531 C 98.859375 645.3125 98.796875 645.875 98.796875 646.453125 C 98.796875 646.796875 98.832031 647.117188 98.890625 647.429688 C 98.957031 647.734375 99.070313 648.007813 99.242188 648.25 C 99.40625 648.488281 99.628906 648.679688 99.902344 648.824219 C 100.179688 648.964844 100.53125 649.035156 100.964844 649.035156 C 101.777344 649.035156 102.507813 648.871094 103.164063 648.546875 C 103.8125 648.222656 104.582031 647.636719 105.46875 646.800781 Z M 99.308594 643.320313 C 101.003906 643.273438 102.300781 642.953125 103.195313 642.347656 C 104.09375 641.746094 104.542969 640.890625 104.542969 639.78125 C 104.542969 639.316406 104.4375 638.957031 104.21875 638.714844 C 104.003906 638.46875 103.699219 638.351563 103.3125 638.351563 C 102.457031 638.351563 101.6875 638.769531 101 639.617188 C 100.316406 640.46875 99.75 641.699219 99.308594 643.320313 Z M 115.410156 631.058594 L 116.96875 631.058594 L 113.40625 647.148438 C 113.316406 647.570313 113.253906 647.894531 113.222656 648.125 C 113.191406 648.359375 113.171875 648.554688 113.171875 648.722656 C 113.171875 649.117188 113.273438 649.398438 113.480469 649.574219 C 113.6875 649.75 114.046875 649.867188 114.550781 649.921875 L 114.402344 650.832031 L 108.65625 650.832031 L 112.152344 635.226563 C 112.355469 634.324219 112.453125 633.664063 112.453125 633.253906 C 112.453125 633.050781 112.433594 632.890625 112.394531 632.773438 C 112.351563 632.660156 112.289063 632.566406 112.203125 632.492188 C 112.125 632.421875 112.011719 632.363281 111.875 632.320313 C 111.738281 632.277344 111.464844 632.230469 111.058594 632.175781 L 111.28125 631.28125 Z M 133.347656 631.980469 C 134.3125 631.980469 135.046875 632.011719 135.558594 632.066406 C 136.246094 632.128906 136.875 632.269531 137.441406 632.484375 C 138.007813 632.703125 138.484375 632.984375 138.871094 633.34375 C 139.257813 633.699219 139.554688 634.128906 139.757813 634.625 C 139.960938 635.125 140.058594 635.703125 140.058594 636.347656 C 140.058594 637.378906 139.871094 638.296875 139.484375 639.113281 C 139.101563 639.929688 138.5625 640.632813 137.863281 641.222656 C 137.164063 641.808594 136.273438 642.253906 135.1875 642.554688 C 134.109375 642.851563 132.898438 643.003906 131.5625 643.003906 L 131.164063 643.003906 C 130.601563 643.003906 130.136719 642.980469 129.753906 642.933594 L 128.832031 647.105469 C 128.769531 647.394531 128.722656 647.65625 128.691406 647.871094 C 128.664063 648.085938 128.652344 648.371094 128.652344 648.722656 C 128.652344 649.144531 128.757813 649.441406 128.976563 649.617188 C 129.191406 649.789063 129.53125 649.894531 129.988281 649.921875 L 129.796875 650.832031 L 122.660156 650.832031 L 122.851563 649.921875 C 123.238281 649.808594 123.535156 649.660156 123.742188 649.464844 C 123.949219 649.273438 124.125 649 124.273438 648.644531 C 124.421875 648.285156 124.570313 647.777344 124.714844 647.105469 L 127.226563 635.710938 C 127.351563 635.167969 127.40625 634.625 127.40625 634.09375 C 127.40625 633.707031 127.316406 633.425781 127.136719 633.246094 C 126.957031 633.066406 126.667969 632.949219 126.261719 632.890625 L 126.453125 631.980469 Z M 130.820313 641.402344 C 131.746094 641.402344 132.511719 641.296875 133.109375 641.085938 C 133.710938 640.871094 134.207031 640.539063 134.609375 640.089844 C 135.007813 639.636719 135.316406 639.089844 135.523438 638.449219 C 135.730469 637.8125 135.835938 637.121094 135.835938 636.375 C 135.835938 635.441406 135.613281 634.75 135.175781 634.285156 C 134.742188 633.828125 134.0625 633.597656 133.136719 633.597656 C 132.625 633.597656 132.175781 633.609375 131.800781 633.628906 L 130.101563 641.402344 Z M 152.472656 640.890625 L 150 640.890625 C 150 640.273438 149.933594 639.84375 149.800781 639.605469 C 149.664063 639.363281 149.4375 639.246094 149.117188 639.246094 C 148.96875 639.246094 148.816406 639.273438 148.65625 639.335938 C 148.492188 639.398438 148.308594 639.5 148.101563 639.652344 C 147.894531 639.808594 147.648438 640.050781 147.355469 640.390625 C 147.066406 640.730469 146.824219 641.066406 146.628906 641.386719 C 146.4375 641.707031 146.277344 642.046875 146.148438 642.398438 C 146.015625 642.757813 145.898438 643.207031 145.789063 643.746094 L 144.269531 650.832031 L 140.308594 650.832031 L 142.476563 641.085938 C 142.679688 640.171875 142.777344 639.515625 142.777344 639.109375 C 142.777344 638.722656 142.671875 638.453125 142.453125 638.3125 C 142.234375 638.171875 141.898438 638.082031 141.441406 638.042969 L 141.648438 637.132813 L 145.441406 636.980469 L 147 636.980469 L 145.96875 640.183594 L 146.132813 640.242188 C 146.90625 639.140625 147.722656 638.316406 148.578125 637.757813 C 149.433594 637.191406 150.359375 636.914063 151.351563 636.914063 C 151.960938 636.914063 152.605469 636.996094 153.289063 637.175781 Z M 164.625 647.960938 C 163.699219 649.007813 162.695313 649.785156 161.625 650.296875 C 160.550781 650.800781 159.390625 651.054688 158.136719 651.054688 C 157.0625 651.054688 156.140625 650.867188 155.386719 650.488281 C 154.632813 650.113281 154.0625 649.550781 153.679688 648.808594 C 153.300781 648.070313 153.109375 647.183594 153.109375 646.152344 C 153.109375 645.671875 153.171875 645.058594 153.304688 644.3125 C 153.480469 643.300781 153.742188 642.398438 154.105469 641.609375 C 154.554688 640.632813 155.144531 639.792969 155.875 639.09375 C 156.597656 638.394531 157.453125 637.855469 158.433594 637.476563 C 159.414063 637.101563 160.488281 636.914063 161.65625 636.914063 C 163.039063 636.914063 164.089844 637.164063 164.804688 637.667969 C 165.523438 638.167969 165.886719 638.933594 165.886719 639.960938 C 165.886719 640.664063 165.746094 641.28125 165.460938 641.816406 C 165.183594 642.347656 164.714844 642.832031 164.0625 643.265625 C 163.40625 643.695313 162.484375 644.050781 161.292969 644.3125 C 160.101563 644.582031 158.660156 644.734375 156.976563 644.769531 C 156.859375 645.3125 156.796875 645.875 156.796875 646.453125 C 156.796875 646.796875 156.832031 647.117188 156.890625 647.429688 C 156.957031 647.734375 157.070313 648.007813 157.242188 648.25 C 157.40625 648.488281 157.628906 648.679688 157.902344 648.824219 C 158.179688 648.964844 158.53125 649.035156 158.964844 649.035156 C 159.777344 649.035156 160.507813 648.871094 161.164063 648.546875 C 161.8125 648.222656 162.582031 647.636719 163.46875 646.800781 Z M 157.308594 643.320313 C 159.003906 643.273438 160.300781 642.953125 161.195313 642.347656 C 162.089844 641.746094 162.542969 640.890625 162.542969 639.78125 C 162.542969 639.316406 162.433594 638.957031 162.21875 638.714844 C 162 638.46875 161.699219 638.351563 161.3125 638.351563 C 160.457031 638.351563 159.6875 638.769531 159 639.617188 C 158.316406 640.46875 157.75 641.699219 157.308594 643.320313 Z M 168.464844 646.96875 C 168.511719 647.628906 168.648438 648.160156 168.875 648.558594 C 169.101563 648.960938 169.378906 649.238281 169.707031 649.390625 C 170.039063 649.542969 170.425781 649.617188 170.867188 649.617188 C 171.59375 649.617188 172.160156 649.441406 172.554688 649.085938 C 172.953125 648.730469 173.148438 648.230469 173.148438 647.585938 C 173.148438 647.199219 173.082031 646.875 172.957031 646.609375 C 172.824219 646.339844 172.613281 646.082031 172.320313 645.828125 C 172.023438 645.570313 171.546875 645.242188 170.882813 644.835938 C 169.964844 644.285156 169.292969 643.714844 168.875 643.121094 C 168.453125 642.527344 168.246094 641.863281 168.246094 641.121094 C 168.246094 639.769531 168.75 638.730469 169.765625 638 C 170.777344 637.277344 172.191406 636.914063 174.015625 636.914063 C 174.730469 636.914063 175.488281 636.96875 176.304688 637.082031 C 177.117188 637.199219 177.863281 637.355469 178.53125 637.550781 L 177.816406 640.847656 L 176.0625 640.847656 C 175.976563 639.992188 175.761719 639.359375 175.40625 638.953125 C 175.050781 638.554688 174.546875 638.351563 173.878906 638.351563 C 173.261719 638.351563 172.769531 638.507813 172.394531 638.828125 C 172.023438 639.140625 171.835938 639.570313 171.835938 640.117188 C 171.835938 640.457031 171.90625 640.753906 172.050781 641.015625 C 172.191406 641.273438 172.417969 641.527344 172.734375 641.785156 C 173.046875 642.046875 173.511719 642.355469 174.128906 642.726563 C 175.105469 643.304688 175.804688 643.902344 176.226563 644.519531 C 176.652344 645.136719 176.863281 645.859375 176.863281 646.6875 C 176.863281 647.628906 176.609375 648.429688 176.109375 649.09375 C 175.609375 649.753906 174.921875 650.25 174.050781 650.570313 C 173.183594 650.894531 172.1875 651.054688 171.074219 651.054688 C 170.089844 651.054688 169.175781 650.992188 168.328125 650.875 C 167.480469 650.753906 166.683594 650.59375 165.9375 650.390625 L 166.710938 646.96875 Z M 191.070313 647.960938 C 190.144531 649.007813 189.140625 649.785156 188.070313 650.296875 C 186.996094 650.800781 185.835938 651.054688 184.582031 651.054688 C 183.507813 651.054688 182.585938 650.867188 181.832031 650.488281 C 181.078125 650.113281 180.507813 649.550781 180.125 648.808594 C 179.746094 648.070313 179.554688 647.183594 179.554688 646.152344 C 179.554688 645.671875 179.617188 645.058594 179.75 644.3125 C 179.921875 643.300781 180.1875 642.398438 180.550781 641.609375 C 181 640.632813 181.585938 639.792969 182.316406 639.09375 C 183.042969 638.394531 183.898438 637.855469 184.878906 637.476563 C 185.859375 637.101563 186.933594 636.914063 188.101563 636.914063 C 189.484375 636.914063 190.535156 637.164063 191.25 637.667969 C 191.96875 638.167969 192.332031 638.933594 192.332031 639.960938 C 192.332031 640.664063 192.1875 641.28125 191.90625 641.816406 C 191.628906 642.347656 191.160156 642.832031 190.507813 643.265625 C 189.851563 643.695313 188.925781 644.050781 187.738281 644.3125 C 186.546875 644.582031 185.105469 644.734375 183.421875 644.769531 C 183.304688 645.3125 183.242188 645.875 183.242188 646.453125 C 183.242188 646.796875 183.273438 647.117188 183.335938 647.429688 C 183.402344 647.734375 183.515625 648.007813 183.683594 648.25 C 183.851563 648.488281 184.070313 648.679688 184.34375 648.824219 C 184.621094 648.964844 184.976563 649.035156 185.410156 649.035156 C 186.222656 649.035156 186.953125 648.871094 187.605469 648.546875 C 188.257813 648.222656 189.027344 647.636719 189.914063 646.800781 Z M 183.75 643.320313 C 185.449219 643.273438 186.746094 642.953125 187.640625 642.347656 C 188.535156 641.746094 188.988281 640.890625 188.988281 639.78125 C 188.988281 639.316406 188.878906 638.957031 188.664063 638.714844 C 188.445313 638.46875 188.144531 638.351563 187.757813 638.351563 C 186.898438 638.351563 186.132813 638.769531 185.445313 639.617188 C 184.761719 640.46875 184.195313 641.699219 183.75 643.320313 Z M 207.238281 650.832031 L 201.511719 650.832031 L 203.238281 643.320313 C 203.488281 642.253906 203.640625 641.511719 203.695313 641.109375 C 203.746094 640.707031 203.773438 640.386719 203.773438 640.15625 C 203.773438 639.742188 203.691406 639.433594 203.511719 639.230469 C 203.335938 639.03125 203.085938 638.929688 202.753906 638.929688 C 202.460938 638.929688 202.136719 639.039063 201.785156 639.261719 C 201.4375 639.480469 201.046875 639.824219 200.613281 640.296875 C 200.179688 640.765625 199.835938 641.261719 199.574219 641.785156 C 199.320313 642.308594 199.113281 642.964844 198.957031 643.746094 L 197.433594 650.832031 L 193.476563 650.832031 L 195.644531 641.085938 C 195.6875 640.863281 195.746094 640.546875 195.828125 640.136719 C 195.90625 639.726563 195.945313 639.382813 195.945313 639.109375 C 195.945313 638.722656 195.835938 638.453125 195.621094 638.3125 C 195.402344 638.171875 195.0625 638.082031 194.605469 638.042969 L 194.8125 637.132813 L 198.609375 636.980469 L 200.0625 636.980469 L 199.273438 639.960938 L 199.4375 640.019531 C 200.074219 639.238281 200.664063 638.625 201.207031 638.175781 C 201.75 637.726563 202.289063 637.40625 202.828125 637.210938 C 203.371094 637.011719 203.964844 636.914063 204.617188 636.914063 C 205.566406 636.914063 206.3125 637.175781 206.851563 637.703125 C 207.398438 638.238281 207.667969 638.964844 207.667969 639.898438 C 207.667969 640.496094 207.578125 641.207031 207.394531 642.035156 L 206.257813 647.148438 C 206.171875 647.570313 206.109375 647.894531 206.074219 648.125 C 206.042969 648.359375 206.027344 648.554688 206.027344 648.722656 C 206.027344 649.136719 206.132813 649.421875 206.339844 649.589844 C 206.546875 649.753906 206.902344 649.867188 207.410156 649.921875 Z M 219.273438 648.320313 C 218.621094 649.027344 218.035156 649.570313 217.515625 649.945313 C 217.003906 650.328125 216.464844 650.605469 215.902344 650.785156 C 215.34375 650.964844 214.691406 651.054688 213.957031 651.054688 C 213.207031 651.054688 212.589844 650.917969 212.101563 650.644531 C 211.605469 650.375 211.246094 650.011719 211.03125 649.554688 C 210.808594 649.097656 210.695313 648.585938 210.695313 648.015625 C 210.695313 647.585938 210.726563 647.171875 210.792969 646.777344 C 210.855469 646.386719 210.992188 645.746094 211.195313 644.851563 L 212.613281 638.859375 L 210.75 638.859375 L 210.945313 637.949219 C 211.515625 637.910156 211.964844 637.816406 212.285156 637.667969 C 212.605469 637.511719 212.882813 637.289063 213.105469 636.992188 C 213.332031 636.699219 213.546875 636.296875 213.75 635.78125 C 213.953125 635.261719 214.179688 634.566406 214.425781 633.679688 L 217.738281 633.679688 L 216.9375 637.132813 L 220.292969 637.132813 L 219.921875 638.859375 L 216.539063 638.859375 L 215.003906 645.171875 C 214.941406 645.445313 214.882813 645.71875 214.824219 645.988281 C 214.769531 646.25 214.726563 646.503906 214.6875 646.75 C 214.648438 646.996094 214.625 647.199219 214.613281 647.359375 C 214.597656 647.519531 214.589844 647.664063 214.589844 647.792969 C 214.589844 648.226563 214.667969 648.542969 214.824219 648.738281 C 214.980469 648.9375 215.210938 649.035156 215.519531 649.035156 C 215.933594 649.035156 216.355469 648.890625 216.796875 648.59375 C 217.230469 648.300781 217.703125 647.84375 218.210938 647.226563 Z M 231.828125 647.960938 C 230.898438 649.007813 229.894531 649.785156 228.824219 650.296875 C 227.75 650.800781 226.589844 651.054688 225.335938 651.054688 C 224.261719 651.054688 223.34375 650.867188 222.589844 650.488281 C 221.835938 650.113281 221.265625 649.550781 220.882813 648.808594 C 220.5 648.070313 220.3125 647.183594 220.3125 646.152344 C 220.3125 645.671875 220.371094 645.058594 220.503906 644.3125 C 220.679688 643.300781 220.941406 642.398438 221.304688 641.609375 C 221.753906 640.632813 222.34375 639.792969 223.074219 639.09375 C 223.800781 638.394531 224.652344 637.855469 225.632813 637.476563 C 226.613281 637.101563 227.6875 636.914063 228.859375 636.914063 C 230.238281 636.914063 231.289063 637.164063 232.007813 637.667969 C 232.722656 638.167969 233.085938 638.933594 233.085938 639.960938 C 233.085938 640.664063 232.945313 641.28125 232.660156 641.816406 C 232.382813 642.347656 231.917969 642.832031 231.261719 643.265625 C 230.605469 643.695313 229.683594 644.050781 228.496094 644.3125 C 227.300781 644.582031 225.859375 644.734375 224.175781 644.769531 C 224.058594 645.3125 223.996094 645.875 223.996094 646.453125 C 223.996094 646.796875 224.03125 647.117188 224.09375 647.429688 C 224.15625 647.734375 224.269531 648.007813 224.441406 648.25 C 224.605469 648.488281 224.828125 648.679688 225.101563 648.824219 C 225.378906 648.964844 225.734375 649.035156 226.167969 649.035156 C 226.976563 649.035156 227.707031 648.871094 228.363281 648.546875 C 229.011719 648.222656 229.78125 647.636719 230.667969 646.800781 Z M 224.507813 643.320313 C 226.203125 643.273438 227.5 642.953125 228.394531 642.347656 C 229.292969 641.746094 229.742188 640.890625 229.742188 639.78125 C 229.742188 639.316406 229.636719 638.957031 229.417969 638.714844 C 229.203125 638.46875 228.898438 638.351563 228.511719 638.351563 C 227.65625 638.351563 226.886719 638.769531 226.199219 639.617188 C 225.515625 640.46875 224.949219 641.699219 224.507813 643.320313 Z M 243.480469 650.832031 L 242.242188 640.585938 C 242.15625 639.914063 242.0625 639.410156 241.953125 639.070313 C 241.847656 638.738281 241.707031 638.492188 241.527344 638.335938 C 241.347656 638.175781 241.066406 638.082031 240.6875 638.042969 L 240.898438 637.132813 L 245.761719 637.132813 L 246.714844 647.449219 C 248.105469 645.457031 249.128906 643.800781 249.789063 642.464844 C 250.441406 641.125 250.773438 640.019531 250.773438 639.136719 C 250.773438 638.785156 250.691406 638.519531 250.523438 638.339844 C 250.355469 638.160156 250.070313 638.0625 249.65625 638.042969 L 249.847656 637.132813 L 253.742188 637.132813 L 254.222656 638.042969 C 253.835938 639.085938 253.246094 640.316406 252.460938 641.730469 C 251.667969 643.148438 250.679688 644.722656 249.496094 646.453125 C 248.3125 648.183594 247.0625 649.910156 245.746094 651.621094 C 244.640625 653.058594 243.714844 654.136719 242.972656 654.863281 C 242.410156 655.417969 241.871094 655.839844 241.367188 656.136719 C 240.960938 656.386719 240.535156 656.570313 240.082031 656.6875 C 239.632813 656.808594 239.109375 656.867188 238.519531 656.867188 C 238.246094 656.867188 237.925781 656.839844 237.5625 656.777344 C 237.203125 656.71875 236.875 656.640625 236.589844 656.550781 L 237.265625 653.445313 L 238.726563 653.445313 C 238.738281 653.832031 238.816406 654.113281 238.964844 654.296875 C 239.109375 654.480469 239.328125 654.574219 239.613281 654.574219 C 240 654.574219 240.351563 654.507813 240.65625 654.382813 C 240.96875 654.253906 241.277344 654.058594 241.605469 653.789063 C 241.925781 653.519531 242.304688 653.140625 242.75 652.648438 C 243.191406 652.15625 243.695313 651.550781 244.265625 650.832031 Z M 260.039063 650.832031 L 260.234375 649.921875 C 260.621094 649.808594 260.917969 649.660156 261.125 649.464844 C 261.332031 649.273438 261.507813 649 261.652344 648.644531 C 261.804688 648.285156 261.949219 647.777344 262.09375 647.105469 L 264.609375 635.710938 C 264.730469 635.167969 264.785156 634.625 264.785156 634.09375 C 264.785156 633.707031 264.695313 633.425781 264.519531 633.246094 C 264.339844 633.066406 264.046875 632.949219 263.640625 632.890625 L 263.835938 631.980469 L 269.429688 631.980469 C 270.746094 631.980469 271.820313 632.042969 272.644531 632.160156 C 273.472656 632.277344 274.199219 632.472656 274.828125 632.742188 C 275.234375 632.925781 275.671875 633.167969 276.140625 633.472656 C 276.609375 633.777344 277.039063 634.191406 277.417969 634.714844 C 277.800781 635.238281 278.09375 635.867188 278.296875 636.59375 C 278.5 637.324219 278.597656 638.132813 278.597656 639.023438 C 278.597656 640.25 278.460938 641.425781 278.183594 642.546875 C 277.910156 643.667969 277.5 644.710938 276.960938 645.660156 C 276.425781 646.613281 275.78125 647.433594 275.03125 648.117188 C 274.28125 648.804688 273.527344 649.339844 272.773438 649.71875 C 272.015625 650.101563 271.164063 650.386719 270.21875 650.5625 C 269.269531 650.742188 268.144531 650.832031 266.847656 650.832031 Z M 265.753906 649.148438 C 266.175781 649.183594 266.519531 649.203125 266.777344 649.203125 C 267.964844 649.203125 268.992188 648.964844 269.847656 648.5 C 270.710938 648.027344 271.476563 647.3125 272.140625 646.351563 C 272.808594 645.386719 273.332031 644.214844 273.714844 642.828125 C 274.101563 641.441406 274.289063 640.050781 274.289063 638.652344 C 274.289063 637.703125 274.1875 636.90625 273.972656 636.261719 C 273.761719 635.617188 273.46875 635.097656 273.097656 634.703125 C 272.726563 634.304688 272.289063 634.023438 271.796875 633.855469 C 271.304688 633.683594 270.78125 633.597656 270.230469 633.597656 C 269.769531 633.597656 269.414063 633.609375 269.164063 633.628906 Z M 291.71875 647.960938 C 290.789063 649.007813 289.785156 649.785156 288.714844 650.296875 C 287.640625 650.800781 286.480469 651.054688 285.226563 651.054688 C 284.152344 651.054688 283.230469 650.867188 282.476563 650.488281 C 281.722656 650.113281 281.152344 649.550781 280.769531 648.808594 C 280.390625 648.070313 280.199219 647.183594 280.199219 646.152344 C 280.199219 645.671875 280.261719 645.058594 280.394531 644.3125 C 280.570313 643.300781 280.832031 642.398438 281.195313 641.609375 C 281.644531 640.632813 282.234375 639.792969 282.964844 639.09375 C 283.6875 638.394531 284.542969 637.855469 285.523438 637.476563 C 286.503906 637.101563 287.578125 636.914063 288.746094 636.914063 C 290.128906 636.914063 291.179688 637.164063 291.894531 637.667969 C 292.613281 638.167969 292.976563 638.933594 292.976563 639.960938 C 292.976563 640.664063 292.835938 641.28125 292.550781 641.816406 C 292.273438 642.347656 291.804688 642.832031 291.152344 643.265625 C 290.496094 643.695313 289.570313 644.050781 288.382813 644.3125 C 287.191406 644.582031 285.75 644.734375 284.066406 644.769531 C 283.949219 645.3125 283.886719 645.875 283.886719 646.453125 C 283.886719 646.796875 283.921875 647.117188 283.980469 647.429688 C 284.046875 647.734375 284.160156 648.007813 284.332031 648.25 C 284.496094 648.488281 284.714844 648.679688 284.988281 648.824219 C 285.269531 648.964844 285.621094 649.035156 286.054688 649.035156 C 286.867188 649.035156 287.597656 648.871094 288.253906 648.546875 C 288.902344 648.222656 289.671875 647.636719 290.558594 646.800781 Z M 284.394531 643.320313 C 286.09375 643.273438 287.390625 642.953125 288.285156 642.347656 C 289.179688 641.746094 289.632813 640.890625 289.632813 639.78125 C 289.632813 639.316406 289.523438 638.957031 289.308594 638.714844 C 289.089844 638.46875 288.789063 638.351563 288.402344 638.351563 C 287.546875 638.351563 286.777344 638.769531 286.089844 639.617188 C 285.40625 640.46875 284.839844 641.699219 284.394531 643.320313 Z M 293.445313 630.464844 L 293.253906 631.375 L 287.59375 635.820313 L 286.613281 634.824219 L 290.296875 630.464844 Z M 302.058594 631.625 L 301.34375 635.007813 L 297.765625 635.007813 L 298.523438 631.625 Z M 298.164063 650.402344 C 297.84375 651.898438 297.386719 653.125 296.796875 654.089844 C 296.210938 655.054688 295.449219 655.785156 294.519531 656.273438 C 293.589844 656.761719 292.457031 657.007813 291.121094 657.007813 C 290.6875 657.007813 290.25 656.945313 289.8125 656.824219 L 290.183594 655.320313 C 290.4375 655.394531 290.746094 655.433594 291.09375 655.433594 C 291.507813 655.433594 291.847656 655.371094 292.109375 655.257813 C 292.371094 655.144531 292.609375 654.949219 292.820313 654.664063 C 293.03125 654.382813 293.230469 653.972656 293.414063 653.429688 C 293.597656 652.886719 293.800781 652.121094 294.023438 651.132813 L 296.261719 641.191406 C 296.378906 640.679688 296.464844 640.257813 296.507813 639.933594 C 296.554688 639.613281 296.578125 639.339844 296.578125 639.125 C 296.578125 638.761719 296.492188 638.507813 296.320313 638.355469 C 296.152344 638.203125 295.792969 638.101563 295.25 638.042969 L 295.460938 637.132813 L 299.503906 636.980469 L 301.078125 636.980469 Z M 314.03125 637.90625 L 315.277344 636.914063 L 316.824219 637.132813 L 314.695313 646.761719 C 314.582031 647.246094 314.503906 647.636719 314.453125 647.933594 C 314.398438 648.226563 314.375 648.476563 314.375 648.679688 C 314.375 649.09375 314.480469 649.390625 314.683594 649.574219 C 314.886719 649.757813 315.242188 649.875 315.757813 649.921875 L 315.605469 650.832031 L 310.304688 650.832031 L 311.046875 648 L 310.867188 647.949219 C 310.242188 648.757813 309.660156 649.386719 309.121094 649.832031 C 308.582031 650.277344 308.054688 650.59375 307.53125 650.777344 C 307.011719 650.960938 306.414063 651.054688 305.730469 651.054688 C 305.085938 651.054688 304.519531 650.902344 304.035156 650.597656 C 303.542969 650.296875 303.15625 649.816406 302.875 649.15625 C 302.585938 648.496094 302.445313 647.660156 302.445313 646.648438 C 302.445313 645.679688 302.558594 644.703125 302.785156 643.71875 C 303.011719 642.734375 303.339844 641.816406 303.785156 640.964844 C 304.226563 640.113281 304.785156 639.382813 305.457031 638.773438 C 306.128906 638.167969 306.890625 637.703125 307.738281 637.390625 C 308.59375 637.074219 309.519531 636.914063 310.523438 636.914063 C 311.898438 636.914063 313.066406 637.242188 314.03125 637.90625 Z M 311.945313 642.242188 C 312.007813 641.945313 312.0625 641.617188 312.105469 641.253906 C 312.148438 640.890625 312.164063 640.539063 312.164063 640.199219 C 312.164063 639.589844 312.050781 639.132813 311.820313 638.816406 C 311.589844 638.507813 311.214844 638.351563 310.691406 638.351563 C 309.832031 638.351563 309.074219 638.78125 308.40625 639.636719 C 307.75 640.5 307.214844 641.660156 306.808594 643.113281 C 306.40625 644.566406 306.203125 645.867188 306.203125 647.019531 C 306.203125 647.691406 306.300781 648.191406 306.5 648.527344 C 306.695313 648.859375 307.003906 649.023438 307.417969 649.023438 C 308.023438 649.023438 308.644531 648.726563 309.277344 648.132813 C 309.902344 647.539063 310.410156 646.839844 310.796875 646.039063 C 311.183594 645.238281 311.535156 644.144531 311.835938 642.753906 Z M 332.191406 650.832031 L 326.460938 650.832031 L 328.1875 643.320313 C 328.4375 642.253906 328.589844 641.511719 328.644531 641.109375 C 328.695313 640.707031 328.726563 640.386719 328.726563 640.15625 C 328.726563 639.742188 328.640625 639.433594 328.460938 639.230469 C 328.285156 639.03125 328.035156 638.929688 327.703125 638.929688 C 327.410156 638.929688 327.085938 639.039063 326.734375 639.261719 C 326.386719 639.480469 325.996094 639.824219 325.5625 640.296875 C 325.128906 640.765625 324.785156 641.261719 324.523438 641.785156 C 324.269531 642.308594 324.0625 642.964844 323.90625 643.746094 L 322.386719 650.832031 L 318.425781 650.832031 L 320.59375 641.085938 C 320.636719 640.863281 320.695313 640.546875 320.777344 640.136719 C 320.859375 639.726563 320.894531 639.382813 320.894531 639.109375 C 320.894531 638.722656 320.785156 638.453125 320.570313 638.3125 C 320.351563 638.171875 320.011719 638.082031 319.554688 638.042969 L 319.765625 637.132813 L 323.558594 636.980469 L 325.011719 636.980469 L 324.222656 639.960938 L 324.386719 640.019531 C 325.023438 639.238281 325.613281 638.625 326.15625 638.175781 C 326.699219 637.726563 327.238281 637.40625 327.777344 637.210938 C 328.320313 637.011719 328.914063 636.914063 329.570313 636.914063 C 330.515625 636.914063 331.261719 637.175781 331.804688 637.703125 C 332.351563 638.238281 332.617188 638.964844 332.617188 639.898438 C 332.617188 640.496094 332.527344 641.207031 332.34375 642.035156 L 331.210938 647.148438 C 331.121094 647.570313 331.058594 647.894531 331.027344 648.125 C 330.992188 648.359375 330.976563 648.554688 330.976563 648.722656 C 330.976563 649.136719 331.082031 649.421875 331.289063 649.589844 C 331.496094 649.753906 331.851563 649.867188 332.359375 649.921875 Z M 340.300781 651.054688 C 339.289063 651.054688 338.398438 650.871094 337.628906 650.507813 C 336.859375 650.144531 336.257813 649.59375 335.820313 648.851563 C 335.382813 648.109375 335.164063 647.203125 335.164063 646.136719 C 335.164063 645.730469 335.191406 645.28125 335.246094 644.785156 C 335.320313 644.15625 335.445313 643.515625 335.628906 642.867188 C 335.84375 642.105469 336.113281 641.4375 336.433594 640.847656 C 336.78125 640.183594 337.1875 639.613281 337.648438 639.128906 C 338.109375 638.648438 338.609375 638.246094 339.148438 637.925781 C 339.683594 637.609375 340.273438 637.371094 340.90625 637.199219 C 341.664063 637.007813 342.457031 636.914063 343.28125 636.914063 C 344.425781 636.914063 345.382813 637.121094 346.15625 637.539063 C 346.929688 637.960938 347.5 638.542969 347.871094 639.289063 C 348.25 640.03125 348.433594 640.902344 348.433594 641.886719 C 348.433594 643.097656 348.230469 644.316406 347.824219 645.542969 C 347.421875 646.769531 346.863281 647.792969 346.148438 648.621094 C 345.4375 649.453125 344.589844 650.066406 343.617188 650.460938 C 342.640625 650.855469 341.53125 651.054688 340.300781 651.054688 Z M 338.878906 647.03125 C 338.878906 647.902344 339.019531 648.546875 339.296875 648.976563 C 339.582031 649.40625 340.023438 649.617188 340.632813 649.617188 C 340.972656 649.617188 341.296875 649.546875 341.601563 649.40625 C 341.914063 649.257813 342.214844 649.019531 342.519531 648.667969 C 342.816406 648.324219 343.082031 647.886719 343.324219 647.359375 C 343.5625 646.832031 343.789063 646.175781 344.007813 645.398438 C 344.222656 644.621094 344.394531 643.855469 344.511719 643.113281 C 344.628906 642.367188 344.691406 641.671875 344.691406 641.027344 C 344.691406 640.109375 344.550781 639.429688 344.269531 638.996094 C 343.988281 638.5625 343.554688 638.351563 342.964844 638.351563 C 342.191406 638.351563 341.523438 638.722656 340.957031 639.472656 C 340.390625 640.226563 339.902344 641.386719 339.492188 642.957031 C 339.082031 644.527344 338.878906 645.882813 338.878906 647.03125 "/>
<path style=" stroke:none;fill-rule:nonzero;fill:rgb(92.941284%,10.980225%,14.117432%);fill-opacity:1;" d="M 351.855469 646.96875 C 351.902344 647.628906 352.039063 648.160156 352.265625 648.558594 C 352.492188 648.960938 352.769531 649.238281 353.101563 649.390625 C 353.429688 649.542969 353.816406 649.617188 354.261719 649.617188 C 354.984375 649.617188 355.550781 649.441406 355.949219 649.085938 C 356.34375 648.730469 356.542969 648.230469 356.542969 647.585938 C 356.542969 647.199219 356.476563 646.875 356.347656 646.609375 C 356.214844 646.339844 356.003906 646.082031 355.710938 645.828125 C 355.414063 645.570313 354.9375 645.242188 354.273438 644.835938 C 353.355469 644.285156 352.683594 643.714844 352.265625 643.121094 C 351.847656 642.527344 351.640625 641.863281 351.640625 641.121094 C 351.640625 639.769531 352.144531 638.730469 353.15625 638 C 354.171875 637.277344 355.585938 636.914063 357.410156 636.914063 C 358.121094 636.914063 358.878906 636.96875 359.695313 637.082031 C 360.511719 637.199219 361.253906 637.355469 361.925781 637.550781 L 361.207031 640.847656 L 359.453125 640.847656 C 359.371094 639.992188 359.152344 639.359375 358.800781 638.953125 C 358.441406 638.554688 357.9375 638.351563 357.273438 638.351563 C 356.65625 638.351563 356.160156 638.507813 355.785156 638.828125 C 355.414063 639.140625 355.226563 639.570313 355.226563 640.117188 C 355.226563 640.457031 355.296875 640.753906 355.441406 641.015625 C 355.585938 641.273438 355.8125 641.527344 356.125 641.785156 C 356.4375 642.046875 356.902344 642.355469 357.523438 642.726563 C 358.496094 643.304688 359.195313 643.902344 359.621094 644.519531 C 360.042969 645.136719 360.253906 645.859375 360.253906 646.6875 C 360.253906 647.628906 360 648.429688 359.5 649.09375 C 359 649.753906 358.3125 650.25 357.441406 650.570313 C 356.574219 650.894531 355.578125 651.054688 354.46875 651.054688 C 353.480469 651.054688 352.566406 650.992188 351.71875 650.875 C 350.871094 650.753906 350.074219 650.59375 349.328125 650.390625 L 350.101563 646.96875 Z M 385.261719 632.4375 L 384.375 636.46875 L 382.570313 636.46875 C 382.542969 635.648438 382.457031 635.03125 382.320313 634.621094 C 382.179688 634.207031 381.96875 633.894531 381.671875 633.6875 C 381.378906 633.480469 380.976563 633.378906 380.46875 633.378906 C 380.0625 633.378906 379.644531 633.46875 379.214844 633.644531 C 378.78125 633.824219 378.351563 634.109375 377.929688 634.496094 C 377.441406 634.945313 376.976563 635.523438 376.542969 636.230469 C 376.105469 636.929688 375.707031 637.746094 375.359375 638.667969 C 375.085938 639.410156 374.828125 640.257813 374.59375 641.207031 C 374.359375 642.15625 374.195313 643.027344 374.09375 643.820313 C 374 644.609375 373.949219 645.3125 373.949219 645.929688 C 373.949219 646.703125 374.023438 647.34375 374.167969 647.847656 C 374.308594 648.359375 374.558594 648.75 374.910156 649.023438 C 375.265625 649.300781 375.753906 649.4375 376.382813 649.4375 C 377.070313 649.4375 377.664063 649.320313 378.15625 649.085938 C 378.648438 648.851563 379.074219 648.511719 379.425781 648.070313 C 379.78125 647.628906 380.128906 647.019531 380.46875 646.246094 L 382.277344 646.246094 L 381.390625 650.324219 C 380.5 650.578125 379.617188 650.765625 378.730469 650.878906 C 377.847656 650.996094 376.894531 651.054688 375.886719 651.054688 C 373.921875 651.054688 372.417969 650.515625 371.367188 649.445313 C 370.320313 648.371094 369.792969 646.828125 369.792969 644.8125 C 369.792969 644.203125 369.847656 643.496094 369.960938 642.695313 C 370.144531 641.464844 370.429688 640.292969 370.816406 639.175781 C 371.257813 637.90625 371.8125 636.800781 372.488281 635.863281 C 373.15625 634.921875 373.917969 634.152344 374.75 633.546875 C 375.589844 632.949219 376.5 632.496094 377.480469 632.203125 C 378.460938 631.90625 379.507813 631.761719 380.621094 631.761719 C 381.46875 631.761719 382.269531 631.816406 383.03125 631.933594 C 383.792969 632.046875 384.53125 632.21875 385.261719 632.4375 Z M 385.484375 637.132813 L 391.214844 637.132813 L 389.484375 644.644531 C 389.242188 645.714844 389.085938 646.449219 389.035156 646.855469 C 388.976563 647.257813 388.949219 647.578125 388.949219 647.804688 C 388.949219 648.238281 389.035156 648.554688 389.203125 648.75 C 389.375 648.941406 389.628906 649.035156 389.957031 649.035156 C 390.140625 649.035156 390.339844 648.996094 390.550781 648.90625 C 390.765625 648.820313 390.976563 648.6875 391.1875 648.519531 C 391.398438 648.347656 391.65625 648.113281 391.960938 647.804688 C 392.261719 647.503906 392.53125 647.179688 392.761719 646.835938 C 392.988281 646.492188 393.183594 646.117188 393.332031 645.722656 C 393.484375 645.328125 393.625 644.828125 393.757813 644.21875 L 395.273438 637.132813 L 399.238281 637.132813 L 397.070313 646.882813 C 397.023438 647.105469 396.960938 647.421875 396.882813 647.828125 C 396.808594 648.238281 396.765625 648.578125 396.765625 648.859375 C 396.765625 649.242188 396.871094 649.507813 397.089844 649.648438 C 397.308594 649.796875 397.644531 649.886719 398.105469 649.921875 L 397.902344 650.832031 L 392.691406 650.832031 L 393.4375 648 L 393.273438 647.949219 C 392.414063 649.011719 391.589844 649.800781 390.792969 650.300781 C 389.996094 650.804688 389.089844 651.054688 388.078125 651.054688 C 387.148438 651.054688 386.414063 650.789063 385.871094 650.257813 C 385.324219 649.730469 385.054688 649 385.054688 648.070313 C 385.054688 647.472656 385.144531 646.761719 385.328125 645.929688 L 386.464844 640.820313 C 386.554688 640.394531 386.617188 640.070313 386.648438 639.839844 C 386.683594 639.609375 386.699219 639.410156 386.699219 639.246094 C 386.699219 638.839844 386.597656 638.554688 386.394531 638.386719 C 386.191406 638.222656 385.832031 638.109375 385.320313 638.042969 Z M 408.792969 631.625 L 408.078125 635.007813 L 404.5 635.007813 L 405.257813 631.625 Z M 405.601563 647.148438 C 405.503906 647.605469 405.4375 647.949219 405.410156 648.167969 C 405.386719 648.386719 405.371094 648.574219 405.371094 648.722656 C 405.371094 649.117188 405.476563 649.398438 405.683594 649.574219 C 405.886719 649.75 406.242188 649.867188 406.753906 649.921875 L 406.597656 650.832031 L 400.855469 650.832031 L 403.011719 641.191406 C 403.128906 640.640625 403.214844 640.210938 403.253906 639.902344 C 403.300781 639.59375 403.328125 639.335938 403.328125 639.125 C 403.328125 638.761719 403.242188 638.507813 403.070313 638.355469 C 402.902344 638.203125 402.542969 638.101563 402 638.042969 L 402.210938 637.132813 L 406.253906 636.980469 L 407.828125 636.980469 Z M 420.445313 635.226563 C 420.503906 635 420.570313 634.664063 420.640625 634.234375 C 420.714844 633.800781 420.753906 633.472656 420.753906 633.253906 C 420.753906 633.050781 420.730469 632.890625 420.691406 632.773438 C 420.648438 632.660156 420.589844 632.566406 420.503906 632.492188 C 420.421875 632.421875 420.308594 632.363281 420.175781 632.320313 C 420.03125 632.277344 419.765625 632.230469 419.359375 632.175781 L 419.578125 631.28125 L 423.707031 631.058594 L 425.269531 631.058594 L 421.789063 646.761719 C 421.6875 647.207031 421.605469 647.589844 421.554688 647.894531 C 421.5 648.207031 421.46875 648.464844 421.46875 648.679688 C 421.46875 649.09375 421.574219 649.390625 421.777344 649.574219 C 421.980469 649.757813 422.335938 649.875 422.851563 649.921875 L 422.699219 650.832031 L 417.398438 650.832031 L 418.140625 648 L 417.960938 647.949219 C 417.335938 648.757813 416.757813 649.386719 416.214844 649.832031 C 415.675781 650.277344 415.148438 650.59375 414.625 650.777344 C 414.105469 650.960938 413.507813 651.054688 412.824219 651.054688 C 412.179688 651.054688 411.613281 650.902344 411.128906 650.597656 C 410.636719 650.296875 410.25 649.816406 409.96875 649.15625 C 409.679688 648.496094 409.539063 647.660156 409.539063 646.648438 C 409.539063 645.679688 409.652344 644.703125 409.878906 643.71875 C 410.105469 642.734375 410.433594 641.816406 410.875 640.964844 C 411.308594 640.113281 411.863281 639.382813 412.535156 638.773438 C 413.207031 638.167969 413.96875 637.703125 414.820313 637.390625 C 415.671875 637.074219 416.601563 636.914063 417.605469 636.914063 C 418.425781 636.914063 419.214844 637.054688 419.980469 637.339844 Z M 419.039063 642.242188 C 419.09375 641.964844 419.144531 641.644531 419.191406 641.28125 C 419.234375 640.917969 419.257813 640.5625 419.257813 640.210938 C 419.257813 639.59375 419.144531 639.132813 418.914063 638.816406 C 418.683594 638.507813 418.308594 638.351563 417.785156 638.351563 C 416.925781 638.351563 416.167969 638.78125 415.503906 639.636719 C 414.84375 640.5 414.308594 641.660156 413.902344 643.113281 C 413.5 644.566406 413.296875 645.867188 413.296875 647.019531 C 413.296875 647.691406 413.394531 648.191406 413.59375 648.527344 C 413.792969 648.859375 414.097656 649.023438 414.511719 649.023438 C 415.117188 649.023438 415.738281 648.726563 416.371094 648.132813 C 416.996094 647.539063 417.503906 646.839844 417.890625 646.039063 C 418.277344 645.238281 418.628906 644.144531 418.929688 642.753906 Z M 437.242188 637.90625 L 438.488281 636.914063 L 440.03125 637.132813 L 437.90625 646.761719 C 437.792969 647.246094 437.714844 647.636719 437.660156 647.933594 C 437.609375 648.226563 437.585938 648.476563 437.585938 648.679688 C 437.585938 649.09375 437.691406 649.390625 437.894531 649.574219 C 438.09375 649.757813 438.453125 649.875 438.96875 649.921875 L 438.816406 650.832031 L 433.515625 650.832031 L 434.257813 648 L 434.078125 647.949219 C 433.453125 648.757813 432.871094 649.386719 432.332031 649.832031 C 431.792969 650.277344 431.265625 650.59375 430.742188 650.777344 C 430.222656 650.960938 429.625 651.054688 428.941406 651.054688 C 428.296875 651.054688 427.730469 650.902344 427.246094 650.597656 C 426.753906 650.296875 426.367188 649.816406 426.085938 649.15625 C 425.796875 648.496094 425.65625 647.660156 425.65625 646.648438 C 425.65625 645.679688 425.769531 644.703125 425.996094 643.71875 C 426.222656 642.734375 426.550781 641.816406 426.996094 640.964844 C 427.4375 640.113281 427.992188 639.382813 428.667969 638.773438 C 429.335938 638.167969 430.101563 637.703125 430.949219 637.390625 C 431.800781 637.074219 432.730469 636.914063 433.734375 636.914063 C 435.105469 636.914063 436.277344 637.242188 437.242188 637.90625 Z M 435.152344 642.242188 C 435.21875 641.945313 435.273438 641.617188 435.316406 641.253906 C 435.355469 640.890625 435.375 640.539063 435.375 640.199219 C 435.375 639.589844 435.261719 639.132813 435.03125 638.816406 C 434.800781 638.507813 434.421875 638.351563 433.898438 638.351563 C 433.042969 638.351563 432.285156 638.78125 431.617188 639.636719 C 430.957031 640.5 430.425781 641.660156 430.019531 643.113281 C 429.613281 644.566406 429.414063 645.867188 429.414063 647.019531 C 429.414063 647.691406 429.511719 648.191406 429.710938 648.527344 C 429.90625 648.859375 430.214844 649.023438 430.628906 649.023438 C 431.230469 649.023438 431.855469 648.726563 432.484375 648.132813 C 433.113281 647.539063 433.621094 646.839844 434.007813 646.039063 C 434.394531 645.238281 434.742188 644.144531 435.046875 642.753906 Z M 453.800781 640.890625 L 451.328125 640.890625 C 451.328125 640.273438 451.261719 639.84375 451.128906 639.605469 C 450.992188 639.363281 450.765625 639.246094 450.445313 639.246094 C 450.296875 639.246094 450.144531 639.273438 449.984375 639.335938 C 449.820313 639.398438 449.636719 639.5 449.425781 639.652344 C 449.21875 639.808594 448.976563 640.050781 448.683594 640.390625 C 448.394531 640.730469 448.148438 641.066406 447.957031 641.386719 C 447.761719 641.707031 447.601563 642.046875 447.476563 642.398438 C 447.34375 642.757813 447.226563 643.207031 447.117188 643.746094 L 445.59375 650.832031 L 441.636719 650.832031 L 443.804688 641.085938 C 444.007813 640.171875 444.105469 639.515625 444.105469 639.109375 C 444.105469 638.722656 443.996094 638.453125 443.78125 638.3125 C 443.5625 638.171875 443.222656 638.082031 442.765625 638.042969 L 442.972656 637.132813 L 446.769531 636.980469 L 448.328125 636.980469 L 447.296875 640.183594 L 447.460938 640.242188 C 448.234375 639.140625 449.050781 638.316406 449.902344 637.757813 C 450.761719 637.191406 451.6875 636.914063 452.679688 636.914063 C 453.289063 636.914063 453.933594 636.996094 454.617188 637.175781 Z M 470 648.320313 C 469.34375 649.027344 468.757813 649.570313 468.242188 649.945313 C 467.726563 650.328125 467.1875 650.605469 466.628906 650.785156 C 466.066406 650.964844 465.417969 651.054688 464.679688 651.054688 C 463.933594 651.054688 463.316406 650.917969 462.824219 650.644531 C 462.328125 650.375 461.972656 650.011719 461.753906 649.554688 C 461.53125 649.097656 461.417969 648.585938 461.417969 648.015625 C 461.417969 647.585938 461.453125 647.171875 461.519531 646.777344 C 461.578125 646.386719 461.714844 645.746094 461.917969 644.851563 L 463.339844 638.859375 L 461.476563 638.859375 L 461.667969 637.949219 C 462.238281 637.910156 462.6875 637.816406 463.007813 637.667969 C 463.328125 637.511719 463.605469 637.289063 463.828125 636.992188 C 464.054688 636.699219 464.269531 636.296875 464.472656 635.78125 C 464.675781 635.261719 464.902344 634.566406 465.148438 633.679688 L 468.460938 633.679688 L 467.660156 637.132813 L 471.015625 637.132813 L 470.644531 638.859375 L 467.265625 638.859375 L 465.726563 645.171875 C 465.667969 645.445313 465.605469 645.71875 465.550781 645.988281 C 465.492188 646.25 465.449219 646.503906 465.410156 646.75 C 465.375 646.996094 465.351563 647.199219 465.335938 647.359375 C 465.324219 647.519531 465.3125 647.664063 465.3125 647.792969 C 465.3125 648.226563 465.394531 648.542969 465.550781 648.738281 C 465.703125 648.9375 465.933594 649.035156 466.242188 649.035156 C 466.65625 649.035156 467.082031 648.890625 467.519531 648.59375 C 467.953125 648.300781 468.429688 647.84375 468.933594 647.226563 Z M 472.210938 637.132813 L 477.941406 637.132813 L 476.210938 644.644531 C 475.96875 645.714844 475.8125 646.449219 475.757813 646.855469 C 475.703125 647.257813 475.675781 647.578125 475.675781 647.804688 C 475.675781 648.238281 475.757813 648.554688 475.929688 648.75 C 476.097656 648.941406 476.351563 649.035156 476.683594 649.035156 C 476.867188 649.035156 477.066406 648.996094 477.277344 648.90625 C 477.488281 648.820313 477.699219 648.6875 477.914063 648.519531 C 478.125 648.347656 478.378906 648.113281 478.6875 647.804688 C 478.988281 647.503906 479.257813 647.179688 479.488281 646.835938 C 479.714844 646.492188 479.90625 646.117188 480.058594 645.722656 C 480.210938 645.328125 480.351563 644.828125 480.480469 644.21875 L 482 637.132813 L 485.964844 637.132813 L 483.796875 646.882813 C 483.75 647.105469 483.6875 647.421875 483.609375 647.828125 C 483.53125 648.238281 483.488281 648.578125 483.488281 648.859375 C 483.488281 649.242188 483.597656 649.507813 483.816406 649.648438 C 484.03125 649.796875 484.371094 649.886719 484.828125 649.921875 L 484.625 650.832031 L 479.417969 650.832031 L 480.160156 648 L 479.996094 647.949219 C 479.140625 649.011719 478.3125 649.800781 477.515625 650.300781 C 476.722656 650.804688 475.816406 651.054688 474.800781 651.054688 C 473.875 651.054688 473.136719 650.789063 472.597656 650.257813 C 472.050781 649.730469 471.78125 649 471.78125 648.070313 C 471.78125 647.472656 471.871094 646.761719 472.054688 645.929688 L 473.191406 640.820313 C 473.28125 640.394531 473.339844 640.070313 473.375 639.839844 C 473.40625 639.609375 473.425781 639.410156 473.425781 639.246094 C 473.425781 638.839844 473.320313 638.554688 473.121094 638.386719 C 472.917969 638.222656 472.558594 638.109375 472.042969 638.042969 Z M 494.8125 638.859375 L 495.011719 637.949219 C 495.386719 637.910156 495.671875 637.863281 495.859375 637.808594 C 496.046875 637.757813 496.207031 637.675781 496.347656 637.566406 C 496.484375 637.464844 496.613281 637.289063 496.734375 637.050781 C 496.855469 636.808594 496.980469 636.433594 497.121094 635.917969 C 497.351563 635.042969 497.640625 634.320313 497.988281 633.742188 C 498.339844 633.164063 498.796875 632.664063 499.355469 632.238281 C 499.917969 631.808594 500.578125 631.496094 501.328125 631.296875 C 502.078125 631.101563 502.902344 631 503.804688 631 C 504.164063 631 504.550781 631.015625 504.972656 631.042969 C 505.390625 631.074219 505.867188 631.136719 506.398438 631.25 L 505.78125 634.011719 L 504 634.011719 C 503.960938 633.441406 503.867188 633.039063 503.722656 632.796875 C 503.574219 632.558594 503.34375 632.4375 503.035156 632.4375 C 502.820313 632.4375 502.632813 632.476563 502.464844 632.5625 C 502.296875 632.648438 502.136719 632.792969 501.980469 633.003906 C 501.828125 633.21875 501.675781 633.523438 501.535156 633.925781 C 501.386719 634.324219 501.242188 634.886719 501.085938 635.613281 L 500.738281 637.132813 L 503.363281 637.132813 L 502.992188 638.859375 L 500.351563 638.859375 L 497.851563 650.402344 C 497.53125 651.886719 497.074219 653.109375 496.492188 654.074219 C 495.90625 655.046875 495.152344 655.773438 494.21875 656.265625 C 493.289063 656.757813 492.152344 657.007813 490.808594 657.007813 C 490.378906 657.007813 489.9375 656.945313 489.5 656.824219 L 489.871094 655.320313 C 490.128906 655.394531 490.433594 655.433594 490.78125 655.433594 C 491.195313 655.433594 491.535156 655.371094 491.796875 655.257813 C 492.058594 655.144531 492.296875 654.949219 492.507813 654.664063 C 492.71875 654.382813 492.917969 653.972656 493.101563 653.429688 C 493.285156 652.886719 493.488281 652.121094 493.710938 651.132813 L 496.472656 638.859375 Z M 504.027344 637.132813 L 509.761719 637.132813 L 508.03125 644.644531 C 507.785156 645.714844 507.628906 646.449219 507.578125 646.855469 C 507.519531 647.257813 507.492188 647.578125 507.492188 647.804688 C 507.492188 648.238281 507.578125 648.554688 507.746094 648.75 C 507.917969 648.941406 508.171875 649.035156 508.5 649.035156 C 508.683594 649.035156 508.882813 648.996094 509.09375 648.90625 C 509.308594 648.820313 509.519531 648.6875 509.730469 648.519531 C 509.945313 648.347656 510.199219 648.113281 510.503906 647.804688 C 510.808594 647.503906 511.074219 647.179688 511.304688 646.835938 C 511.53125 646.492188 511.726563 646.117188 511.875 645.722656 C 512.027344 645.328125 512.167969 644.828125 512.300781 644.21875 L 513.820313 637.132813 L 517.78125 637.132813 L 515.613281 646.882813 C 515.566406 647.105469 515.507813 647.421875 515.425781 647.828125 C 515.351563 648.238281 515.308594 648.578125 515.308594 648.859375 C 515.308594 649.242188 515.417969 649.507813 515.632813 649.648438 C 515.851563 649.796875 516.191406 649.886719 516.648438 649.921875 L 516.445313 650.832031 L 511.234375 650.832031 L 511.980469 648 L 511.816406 647.949219 C 510.957031 649.011719 510.132813 649.800781 509.335938 650.300781 C 508.539063 650.804688 507.632813 651.054688 506.621094 651.054688 C 505.691406 651.054688 504.957031 650.789063 504.414063 650.257813 C 503.867188 649.730469 503.597656 649 503.597656 648.070313 C 503.597656 647.472656 503.6875 646.761719 503.871094 645.929688 L 505.007813 640.820313 C 505.097656 640.394531 505.160156 640.070313 505.191406 639.839844 C 505.226563 639.609375 505.246094 639.410156 505.246094 639.246094 C 505.246094 638.839844 505.140625 638.554688 504.9375 638.386719 C 504.734375 638.222656 504.378906 638.109375 503.863281 638.042969 Z M 528.640625 648.320313 C 527.984375 649.027344 527.398438 649.570313 526.882813 649.945313 C 526.367188 650.328125 525.828125 650.605469 525.269531 650.785156 C 524.707031 650.964844 524.058594 651.054688 523.320313 651.054688 C 522.574219 651.054688 521.953125 650.917969 521.464844 650.644531 C 520.96875 650.375 520.609375 650.011719 520.394531 649.554688 C 520.171875 649.097656 520.058594 648.585938 520.058594 648.015625 C 520.058594 647.585938 520.09375 647.171875 520.160156 646.777344 C 520.21875 646.386719 520.355469 645.746094 520.558594 644.851563 L 521.976563 638.859375 L 520.117188 638.859375 L 520.308594 637.949219 C 520.878906 637.910156 521.328125 637.816406 521.648438 637.667969 C 521.96875 637.511719 522.246094 637.289063 522.46875 636.992188 C 522.695313 636.699219 522.910156 636.296875 523.113281 635.78125 C 523.316406 635.261719 523.542969 634.566406 523.789063 633.679688 L 527.101563 633.679688 L 526.300781 637.132813 L 529.65625 637.132813 L 529.285156 638.859375 L 525.90625 638.859375 L 524.367188 645.171875 C 524.308594 645.445313 524.246094 645.71875 524.191406 645.988281 C 524.132813 646.25 524.089844 646.503906 524.050781 646.75 C 524.015625 646.996094 523.992188 647.199219 523.976563 647.359375 C 523.964844 647.519531 523.953125 647.664063 523.953125 647.792969 C 523.953125 648.226563 524.035156 648.542969 524.191406 648.738281 C 524.34375 648.9375 524.574219 649.035156 524.882813 649.035156 C 525.296875 649.035156 525.722656 648.890625 526.160156 648.59375 C 526.59375 648.300781 527.070313 647.84375 527.574219 647.226563 Z M 530.851563 637.132813 L 536.582031 637.132813 L 534.851563 644.644531 C 534.605469 645.714844 534.453125 646.449219 534.398438 646.855469 C 534.34375 647.257813 534.316406 647.578125 534.316406 647.804688 C 534.316406 648.238281 534.398438 648.554688 534.570313 648.75 C 534.738281 648.941406 534.992188 649.035156 535.324219 649.035156 C 535.507813 649.035156 535.707031 648.996094 535.917969 648.90625 C 536.128906 648.820313 536.339844 648.6875 536.554688 648.519531 C 536.765625 648.347656 537.019531 648.113281 537.328125 647.804688 C 537.628906 647.503906 537.898438 647.179688 538.128906 646.835938 C 538.355469 646.492188 538.546875 646.117188 538.699219 645.722656 C 538.847656 645.328125 538.992188 644.828125 539.121094 644.21875 L 540.640625 637.132813 L 544.605469 637.132813 L 542.4375 646.882813 C 542.390625 647.105469 542.328125 647.421875 542.25 647.828125 C 542.171875 648.238281 542.128906 648.578125 542.128906 648.859375 C 542.128906 649.242188 542.238281 649.507813 542.457031 649.648438 C 542.671875 649.796875 543.011719 649.886719 543.46875 649.921875 L 543.265625 650.832031 L 538.058594 650.832031 L 538.800781 648 L 538.636719 647.949219 C 537.78125 649.011719 536.953125 649.800781 536.15625 650.300781 C 535.359375 650.804688 534.457031 651.054688 533.441406 651.054688 C 532.515625 651.054688 531.777344 650.789063 531.238281 650.257813 C 530.691406 649.730469 530.421875 649 530.421875 648.070313 C 530.421875 647.472656 530.511719 646.761719 530.695313 645.929688 L 531.832031 640.820313 C 531.921875 640.394531 531.980469 640.070313 532.015625 639.839844 C 532.046875 639.609375 532.066406 639.410156 532.066406 639.246094 C 532.066406 638.839844 531.960938 638.554688 531.757813 638.386719 C 531.558594 638.222656 531.199219 638.109375 530.683594 638.042969 Z M 558.386719 640.890625 L 555.914063 640.890625 C 555.914063 640.273438 555.847656 639.84375 555.714844 639.605469 C 555.578125 639.363281 555.351563 639.246094 555.03125 639.246094 C 554.882813 639.246094 554.730469 639.273438 554.570313 639.335938 C 554.40625 639.398438 554.222656 639.5 554.011719 639.652344 C 553.804688 639.808594 553.5625 640.050781 553.269531 640.390625 C 552.980469 640.730469 552.734375 641.066406 552.542969 641.386719 C 552.351563 641.707031 552.191406 642.046875 552.0625 642.398438 C 551.929688 642.757813 551.8125 643.207031 551.703125 643.746094 L 550.179688 650.832031 L 546.222656 650.832031 L 548.390625 641.085938 C 548.59375 640.171875 548.691406 639.515625 548.691406 639.109375 C 548.691406 638.722656 548.582031 638.453125 548.367188 638.3125 C 548.148438 638.171875 547.808594 638.082031 547.351563 638.042969 L 547.5625 637.132813 L 551.355469 636.980469 L 552.914063 636.980469 L 551.882813 640.183594 L 552.046875 640.242188 C 552.820313 639.140625 553.636719 638.316406 554.488281 637.757813 C 555.347656 637.191406 556.273438 636.914063 557.265625 636.914063 C 557.875 636.914063 558.519531 636.996094 559.203125 637.175781 Z M 564.164063 651.054688 C 563.148438 651.054688 562.257813 650.871094 561.488281 650.507813 C 560.722656 650.144531 560.117188 649.59375 559.679688 648.851563 C 559.242188 648.109375 559.023438 647.203125 559.023438 646.136719 C 559.023438 645.730469 559.054688 645.28125 559.105469 644.785156 C 559.179688 644.15625 559.308594 643.515625 559.492188 642.867188 C 559.703125 642.105469 559.972656 641.4375 560.292969 640.847656 C 560.640625 640.183594 561.046875 639.613281 561.507813 639.128906 C 561.972656 638.648438 562.46875 638.246094 563.007813 637.925781 C 563.546875 637.609375 564.132813 637.371094 564.765625 637.199219 C 565.523438 637.007813 566.316406 636.914063 567.140625 636.914063 C 568.289063 636.914063 569.246094 637.121094 570.015625 637.539063 C 570.789063 637.960938 571.359375 638.542969 571.734375 639.289063 C 572.109375 640.03125 572.292969 640.902344 572.292969 641.886719 C 572.292969 643.097656 572.089844 644.316406 571.6875 645.542969 C 571.28125 646.769531 570.722656 647.792969 570.007813 648.621094 C 569.296875 649.453125 568.453125 650.066406 567.476563 650.460938 C 566.5 650.855469 565.394531 651.054688 564.164063 651.054688 Z M 562.738281 647.03125 C 562.738281 647.902344 562.878906 648.546875 563.160156 648.976563 C 563.441406 649.40625 563.882813 649.617188 564.492188 649.617188 C 564.832031 649.617188 565.15625 649.546875 565.464844 649.40625 C 565.773438 649.257813 566.078125 649.019531 566.378906 648.667969 C 566.675781 648.324219 566.945313 647.886719 567.183594 647.359375 C 567.425781 646.832031 567.652344 646.175781 567.867188 645.398438 C 568.085938 644.621094 568.253906 643.855469 568.371094 643.113281 C 568.488281 642.367188 568.550781 641.671875 568.550781 641.027344 C 568.550781 640.109375 568.410156 639.429688 568.132813 638.996094 C 567.847656 638.5625 567.414063 638.351563 566.828125 638.351563 C 566.054688 638.351563 565.382813 638.722656 564.816406 639.472656 C 564.253906 640.226563 563.761719 641.386719 563.351563 642.957031 C 562.941406 644.527344 562.738281 645.882813 562.738281 647.03125 Z M 581.011719 631.058594 C 581.011719 632.003906 580.929688 632.785156 580.773438 633.390625 C 580.613281 634 580.378906 634.535156 580.054688 635.011719 C 579.730469 635.488281 579.332031 635.949219 578.847656 636.398438 C 578.359375 636.851563 577.667969 637.390625 576.765625 638.015625 L 575.816406 636.71875 C 576.230469 636.324219 576.535156 635.988281 576.734375 635.710938 C 576.933594 635.433594 577.097656 635.140625 577.238281 634.828125 C 577.375 634.511719 577.507813 634.132813 577.640625 633.675781 C 577.765625 633.21875 577.867188 632.765625 577.925781 632.3125 C 577.992188 631.863281 578.03125 631.445313 578.039063 631.058594 Z M 586.089844 631.058594 C 586.089844 632.003906 586.011719 632.785156 585.855469 633.390625 C 585.699219 634 585.460938 634.535156 585.132813 635.011719 C 584.8125 635.488281 584.414063 635.949219 583.929688 636.398438 C 583.445313 636.851563 582.753906 637.390625 581.847656 638.015625 L 580.898438 636.71875 C 581.3125 636.324219 581.617188 635.988281 581.816406 635.710938 C 582.015625 635.433594 582.183594 635.140625 582.320313 634.828125 C 582.457031 634.511719 582.589844 634.132813 582.722656 633.675781 C 582.847656 633.21875 582.949219 632.765625 583.007813 632.3125 C 583.074219 631.863281 583.113281 631.445313 583.121094 631.058594 Z M 586.089844 631.058594 "/>
<path style=" stroke:none;fill-rule:evenodd;fill:rgb(92.941284%,10.980225%,14.117432%);fill-opacity:1;" d="M 237.617188 134.992188 C 197.460938 137.832031 159.882813 148.035156 126.136719 169.179688 C 56.199219 212.992188 15.734375 294.210938 17.988281 376.171875 C 20.191406 456.347656 61.089844 538.128906 131.175781 579.421875 C 164.257813 598.914063 200.605469 607.722656 238.988281 609.867188 C 211.785156 601.824219 185.03125 590.019531 159.617188 570.386719 C 100.738281 524.890625 64.808594 452.636719 63.921875 378.265625 C 63.058594 305.515625 91.550781 233.382813 146.9375 185.402344 C 174.691406 161.363281 205.496094 146.253906 237.617188 134.992188 "/>
<path style=" stroke:none;fill-rule:evenodd;fill:rgb(52.157593%,52.549744%,52.549744%);fill-opacity:1;" d="M 348.585938 144.714844 C 484.179688 144.714844 594.101563 245.175781 594.101563 369.097656 C 594.101563 493.019531 484.179688 593.476563 348.585938 593.476563 C 212.988281 593.476563 103.066406 493.019531 103.066406 369.097656 C 103.066406 245.175781 212.988281 144.714844 348.585938 144.714844 "/>
<g clip-path="url(#clip1)" clip-rule="nonzero">
<g clip-path="url(#clip2)" clip-rule="evenodd">
<path style=" stroke:none;fill-rule:evenodd;fill:rgb(100%,100%,100%);fill-opacity:1;" d="M 409.710938 259.503906 C 413.867188 257.625 426.359375 254.566406 428.84375 260.269531 C 430.433594 263.925781 424.085938 275.527344 422.347656 279.433594 C 412.164063 302.304688 401.984375 325.171875 391.804688 348.042969 C 388.375 355.742188 387.6875 360.335938 380.46875 365.253906 C 374.621094 369.242188 366.347656 372.308594 359.847656 370.195313 C 352.675781 367.863281 357.121094 358.824219 359.105469 354.5 C 371.15625 328.234375 383.207031 301.972656 395.257813 275.710938 C 399.003906 267.546875 400.75 263.550781 409.710938 259.503906 "/>
</g>
</g>
<g clip-path="url(#clip3)" clip-rule="nonzero">
<g clip-path="url(#clip4)" clip-rule="evenodd">
<path style=" stroke:none;fill-rule:evenodd;fill:rgb(100%,100%,100%);fill-opacity:1;" d="M 464.484375 276.953125 C 463.75 276.152344 466.8125 268.101563 467.269531 266.695313 C 467.886719 264.773438 468.507813 262.855469 469.125 260.933594 C 469.488281 259.125 469.332031 257.78125 468.753906 256.820313 C 467.890625 255.382813 466.171875 254.925781 464.597656 254.824219 C 463.210938 254.730469 461.375 254.515625 459.429688 254.363281 C 455.128906 254.027344 450.28125 253.988281 448.503906 256.203125 C 446.914063 258.183594 443.128906 273.757813 441.585938 277.890625 C 439.769531 282.761719 437.667969 287.585938 435.261719 292.363281 C 424.582031 315.488281 414.71875 336.660156 405.902344 360.570313 C 402.847656 368.859375 399.792969 377.144531 396.738281 385.433594 C 394.777344 386.851563 392.816406 388.273438 390.859375 389.691406 C 372.8125 391.246094 354.765625 392.800781 336.71875 394.355469 C 334.492188 394.976563 333.707031 394.035156 335.707031 390.097656 C 340.246094 381.238281 344.28125 372.222656 347.953125 363.101563 C 353.265625 349.910156 357.820313 336.492188 362.066406 322.980469 C 366.542969 308.875 371.023438 294.769531 375.503906 280.667969 C 377.089844 275.675781 378.59375 271.390625 375.441406 266.414063 C 373.773438 263.785156 370.984375 261.765625 367.132813 260.328125 C 363.582031 259.671875 360.34375 259.652344 357.5 260.414063 C 354.980469 261.089844 352.765625 262.375 350.914063 264.382813 C 347.769531 268.308594 344.628906 272.238281 341.484375 276.164063 C 339.847656 278.214844 337.097656 282.730469 335.054688 283.585938 C 333.316406 284.320313 327.398438 284.308594 325.058594 284.542969 C 315.292969 285.535156 306.410156 287.535156 298.179688 290.285156 C 272.335938 298.910156 244.90625 316.0625 238.070313 344.300781 C 236.34375 351.4375 236.070313 359.578125 237.972656 369.210938 C 241.144531 378.882813 246.207031 385.539063 253.164063 389.191406 C 264.351563 395.058594 280.675781 391.84375 292.410156 388.191406 C 297.277344 386.675781 302.25 384.714844 307.316406 382.390625 C 305.640625 388.820313 303.773438 394.804688 301.105469 398.925781 C 299.46875 401.460938 297.53125 403.289063 295.152344 404.085938 C 219.578125 412.09375 163.867188 429.601563 119.960938 452.75 C 123.816406 460.59375 127.667969 468.433594 131.519531 476.273438 C 160.5625 461.828125 189.609375 448.9375 218.652344 439.101563 C 226.609375 436.40625 284.691406 417.765625 288.410156 424.921875 C 290.058594 428.089844 281.789063 436.441406 279.65625 438.925781 C 263.445313 457.792969 247.8125 471.835938 232.605469 482.339844 C 206.792969 500.171875 182.203125 507.8125 158.082031 511.554688 C 165.652344 518.785156 173.222656 526.019531 180.792969 533.25 C 199.773438 525.742188 214.570313 524.230469 241.976563 504.644531 C 262.570313 489.929688 280.976563 472.792969 296.753906 452.992188 C 304.734375 442.976563 311.664063 432.808594 317.835938 422.535156 C 321.792969 415.953125 320.347656 416.292969 327.949219 414.066406 C 332.507813 412.730469 337.726563 411.574219 343.484375 410.570313 C 354.84375 408.585938 368.300781 407.183594 382.949219 406.113281 C 385.355469 405.980469 387.316406 406.167969 387.980469 407.277344 C 388.414063 408 388.300781 409.109375 387.410156 410.777344 C 382.414063 423.140625 378.730469 434.535156 376.175781 445.101563 C 374.433594 452.308594 373.21875 459.128906 372.46875 465.601563 C 371.613281 473.027344 370.296875 481.085938 375.730469 487.167969 C 381.097656 493.171875 389.730469 491.21875 394.769531 485.9375 C 397.371094 483.214844 399.160156 479.328125 399.980469 474.042969 C 400.457031 465.351563 401.59375 456.371094 403.40625 447.085938 C 405.960938 434.019531 410.046875 421.367188 413.566406 408.546875 C 413.789063 406.953125 414.457031 405.804688 415.566406 405.09375 C 417.359375 403.949219 426.039063 403.882813 428.65625 403.726563 C 457.394531 401.984375 483.894531 402.277344 510.347656 402.613281 C 519.164063 402.726563 539.15625 404.261719 546.398438 399.6875 C 550.9375 396.820313 549.136719 392.285156 545.507813 389.664063 C 542.96875 387.832031 539.691406 387.472656 536.242188 387.460938 C 520.347656 386.871094 504.140625 386.589844 487.675781 386.570313 C 468.632813 386.546875 449.242188 386.871094 429.585938 387.460938 C 427.574219 387.34375 425.726563 387.058594 424.703125 385.871094 C 423.191406 384.113281 424.15625 381.585938 424.644531 379.613281 C 426.371094 372.625 428.105469 366.011719 429.832031 362.148438 C 430.832031 359.921875 431.832031 358.605469 432.832031 358.667969 C 436.640625 362.070313 441.765625 364.351563 449.191406 364.65625 C 469.164063 365.476563 495.003906 351.414063 509.335938 338.527344 C 522.011719 327.125 539.191406 304.078125 543.105469 287.945313 C 545.542969 277.894531 544.390625 264.703125 533.96875 259.667969 C 518.972656 252.425781 499.050781 259.824219 485.054688 266.378906 C 479.371094 269.042969 474.167969 271.882813 469.425781 274.894531 C 468.535156 275.460938 465.335938 277.882813 464.484375 276.953125 Z M 454.476563 309.378906 C 446.980469 319.253906 443.566406 326.824219 444.628906 331.859375 C 447.929688 347.515625 477.507813 334.167969 485.542969 328.667969 C 494.554688 322.503906 528.773438 294.914063 516.910156 282.5 C 508 273.167969 486.15625 285.269531 477.605469 290.726563 C 469.167969 296.109375 461.558594 302.445313 454.476563 309.378906 Z M 268.339844 342.195313 C 265.328125 352.007813 265.296875 359.09375 268.914063 362.847656 C 272.125 366.179688 278.214844 366.882813 287.644531 364.53125 C 295.808594 361.214844 302.542969 356.851563 308.269531 351.75 C 317.515625 343.511719 334.921875 323.429688 327.195313 310.140625 C 318.371094 294.960938 290.9375 314.21875 282.789063 322.160156 C 277.171875 327.636719 272.273438 334.191406 268.339844 342.195313 "/>
</g>
</g>
<path style=" stroke:none;fill-rule:evenodd;fill:rgb(100%,100%,100%);fill-opacity:1;" d="M 404.691406 251.777344 C 410.441406 253.710938 415.441406 256.398438 428.824219 250.703125 C 443.339844 244.523438 461.628906 232.625 469.667969 218.777344 C 473.558594 212.074219 472.738281 207.5 469.726563 203.914063 C 448.050781 219.871094 426.371094 235.824219 404.691406 251.777344 "/>
<path style=" stroke:none;fill-rule:evenodd;fill:rgb(92.941284%,10.980225%,14.117432%);fill-opacity:1;" d="M 395.328125 248.378906 C 405.28125 259.207031 436.289063 242.609375 445.574219 235.652344 C 451.542969 231.179688 456.472656 226.160156 460.582031 220.714844 C 465.332031 214.417969 474.289063 201.765625 468.855469 193.851563 C 463.308594 185.773438 446.402344 191.4375 439.160156 194.355469 C 433.59375 196.601563 428.097656 199.515625 422.695313 203.269531 C 413.550781 209.617188 384.707031 236.824219 395.328125 248.378906 "/>
</g>
</svg>
